<svg xmlns="http://www.w3.org/2000/svg" viewBox="0 0 448 512" width="448" height="512">
  <!-- Main checkmark shape -->
  <path fill="#339933" d="M224 508c-6.7 0-13.5-1.8-19.4-5.2l-69.8-40.5c-6.5-3.8-10.5-10.8-10.5-18.3v-84.7c0-5.5 4.5-10 10-10s10 4.5 10 10v79.3l59.8 34.7c3.4 2 7.4 2 10.8 0l69.8-40.5c3.4-2 5.5-5.7 5.5-9.7V119.7c0-4-2.1-7.7-5.5-9.7l-69.8-40.5c-3.4-2-7.4-2-10.8 0l-69.8 40.5c-3.4 2-5.5 5.7-5.5 9.7v84.7c0 5.5-4.5 10-10 10s-10-4.5-10-10v-84.7c0-7.5 4-14.5 10.5-18.3l69.8-40.5c11.9-6.9 26.9-6.9 38.8 0l69.8 40.5c6.5 3.8 10.5 10.8 10.5 18.3v272.6c0 7.5-4 14.5-10.5 18.3l-69.8 40.5c-5.9 3.4-12.7 5.2-19.4 5.2z"/>
  
  <!-- Vertical line -->
  <path fill="#339933" d="M224 272c-5.5 0-10-4.5-10-10v-84.7c0-5.5 4.5-10 10-10s10 4.5 10 10v84.7c0 5.5-4.5 10-10 10z"/>
</svg>