<svg width="48" height="48" viewBox="0 0 48 48" fill="none" xmlns="http://www.w3.org/2000/svg">
  <!-- Bagian atas biru -->
  <path d="M24 6c-6 0-8 2-8 6v4h16v2H14c-4 0-6 2-6 6v4c0 4 2 6 6 6h2v-4c0-4 2-6 6-6h8c4 0 6-2 6-6v-4c0-4-2-6-6-6h-8z" fill="#3776AB"/>
  <circle cx="32" cy="12" r="2" fill="#fff"/>
  <!-- Bagian bawah kuning -->
  <path d="M24 42c6 0 8-2 8-6v-4H16v-2h18c4 0 6-2 6-6v-4c0-4-2-6-6-6h-2v4c0 4-2 6-6 6h-8c-4 0-6 2-6 6v4c0 4 2 6 6 6h8z" fill="#FFD43B"/>
  <circle cx="16" cy="36" r="2" fill="#fff"/>
</svg> 